<svg id="icon-star-blank" xmlns="http://www.w3.org/2000/svg" width="16" height="16" viewBox="0 0 16 16">
  <rect id="container" width="16" height="16" fill="#e6e6e6" opacity="0.003"/>
  <path id="star" d="M7.644.326l1.813,4.3,4.475.334a.474.474,0,0,1,.274.856L10.65,9.007,11.8,13.3a.468.468,0,0,1-.718.529L7.2,11.3,3.314,13.831A.468.468,0,0,1,2.6,13.3l1.155-4.3L.193,5.812a.474.474,0,0,1,.274-.856l4.475-.334L6.756.326a.465.465,0,0,1,.888,0" transform="translate(0.791 1.133)" fill="rgba(0,0,0,0.06)"/>
</svg>
