<svg id="share_24" xmlns="http://www.w3.org/2000/svg" width="24" height="24" viewBox="0 0 24 24">
  <rect id="container" width="24" height="24" opacity="0"/>
  <g id="share" transform="translate(2.25 2)">
    <path id="패스_13840" data-name="패스 13840" d="M1.25,23.116a3,3,0,1,1,3,3A3,3,0,0,1,1.25,23.116Z" transform="translate(-1 -13.114)" fill="none" stroke="#222" stroke-linejoin="round" stroke-width="2"/>
    <path id="패스_13841" data-name="패스 13841" d="M35.88,1.651a3,3,0,1,1-1.1,4.1A3,3,0,0,1,35.88,1.651Z" transform="translate(-21.876 -1.25)" fill="none" stroke="#222" stroke-linejoin="round" stroke-width="2"/>
    <line id="선_2" data-name="선 2" x1="7" y2="4" transform="translate(5.75 4.5)" fill="none" stroke="#222" stroke-linejoin="round" stroke-width="2"/>
    <path id="패스_13842" data-name="패스 13842" d="M35.88,44.58a3,3,0,1,0-1.1-4.1A3,3,0,0,0,35.88,44.58Z" transform="translate(-21.875 -24.981)" fill="none" stroke="#222" stroke-linejoin="round" stroke-width="2"/>
    <line id="선_3" data-name="선 3" x1="7" y1="4" transform="translate(5.75 11.5)" fill="none" stroke="#222" stroke-linejoin="round" stroke-width="2"/>
  </g>
</svg>
