<?xml version="1.0" standalone="no"?>
<!DOCTYPE svg PUBLIC "-//W3C//DTD SVG 20010904//EN"
 "http://www.w3.org/TR/2001/REC-SVG-20010904/DTD/svg10.dtd">
<svg version="1.0" xmlns="http://www.w3.org/2000/svg"
 width="512.000000pt" height="512.000000pt" viewBox="0 0 512.000000 512.000000"
 preserveAspectRatio="xMidYMid meet">

<g transform="translate(0.000000,512.000000) scale(0.100000,-0.100000)"
fill="#000000" stroke="none">
<path d="M2020 4914 c-260 -48 -419 -125 -581 -282 -134 -129 -232 -292 -281
-469 -30 -108 -33 -403 -5 -503 116 -411 428 -694 840 -760 102 -17 286 -7
397 20 97 24 239 89 331 151 291 197 468 579 430 929 -26 243 -126 454 -295
622 -186 186 -419 286 -686 293 -69 2 -136 2 -150 -1z m328 -264 c156 -44 297
-137 394 -258 98 -123 150 -248 169 -405 39 -318 -142 -641 -436 -782 -118
-56 -183 -70 -340 -69 -132 0 -146 2 -235 32 -261 90 -445 288 -511 553 -18
69 -21 104 -17 213 4 114 8 142 35 219 93 265 307 453 583 513 89 19 263 11
358 -16z"/>
<path d="M1950 2760 c-761 -94 -1365 -652 -1510 -1395 -30 -156 -38 -340 -16
-383 42 -82 171 -82 208 0 9 20 18 78 21 145 20 358 172 698 427 953 121 122
208 189 335 259 347 192 725 239 1105 139 172 -46 190 -46 233 -8 62 54 58
143 -8 186 -33 21 -198 68 -314 89 -104 19 -377 27 -481 15z"/>
<path d="M3405 2579 c-33 -5 -72 -14 -87 -20 -16 -6 -63 -58 -112 -121 -68
-88 -96 -116 -147 -147 -59 -35 -75 -40 -204 -56 l-140 -18 -52 -54 c-96 -99
-223 -338 -223 -418 0 -19 23 -89 50 -156 44 -107 50 -130 50 -194 0 -64 -6
-87 -50 -194 -28 -67 -50 -137 -50 -156 0 -41 55 -173 109 -264 52 -86 130
-183 161 -198 14 -6 84 -19 155 -29 182 -24 223 -48 337 -197 46 -60 94 -115
108 -122 67 -35 355 -44 480 -14 55 13 72 28 167 151 102 132 148 158 327 182
71 9 142 24 157 31 54 28 166 193 229 335 51 116 50 130 -9 274 -46 112 -51
132 -51 200 0 68 5 89 51 203 58 147 59 159 9 273 -43 99 -104 198 -167 275
-58 71 -64 73 -248 95 -86 11 -109 18 -165 51 -54 31 -79 56 -145 143 -46 60
-93 112 -110 120 -69 33 -288 45 -430 25z m292 -237 c12 -4 55 -50 95 -102 76
-98 87 -107 210 -176 65 -37 86 -43 197 -58 139 -19 128 -12 196 -126 73 -122
73 -121 20 -251 -47 -112 -47 -113 -47 -232 0 -119 0 -119 47 -237 l48 -117
-27 -58 c-20 -45 -66 -121 -110 -182 -1 -1 -58 -9 -126 -19 -118 -15 -130 -19
-215 -67 -111 -63 -119 -70 -201 -178 -75 -98 -78 -100 -219 -98 -125 2 -126
3 -212 113 -72 92 -85 104 -177 157 -97 55 -103 57 -225 74 -69 9 -128 20
-131 24 -71 100 -130 206 -130 234 0 8 20 62 45 121 l45 108 0 123 0 123 -45
108 c-25 59 -45 113 -45 121 0 7 14 42 31 76 27 52 46 84 99 158 3 5 62 15
130 24 113 16 132 21 197 59 39 22 84 48 101 57 16 9 64 62 107 117 45 60 86
103 99 105 34 7 219 6 243 -1z"/>
<path d="M3449 1862 c-244 -64 -400 -316 -348 -564 19 -91 66 -177 135 -245
194 -190 492 -189 681 3 190 193 190 488 -2 679 -125 126 -294 172 -466 127z
m249 -259 c160 -98 159 -319 -2 -418 -43 -26 -59 -30 -120 -30 -57 0 -80 5
-116 25 -141 79 -171 266 -61 383 75 81 205 98 299 40z"/>
</g>
</svg>
